/* XPM */
static const char *wxSTD_NEW_xpm[] = {
/* columns rows colors chars-per-pixel */
"24 24 2 1",
"  c None",
". c #4D4D4D",
/* pixels */
"                        ",
"                        ",
"                        ",
"                        ",
"     ..............     ",
"     .            .     ",
"     .            .     ",
"     .            .     ",
"     .            .     ",
"     .            .     ",
"     .            .     ",
"     .            .     ",
"     .            .     ",
"     .            .     ",
"     .            .     ",
"     .        .....     ",
"     .        .....     ",
"     .        ....      ",
"     .        ...       ",
"     ...........        ",
"                        ",
"                        ",
"                        ",
"                        "
};

