/* XPM */
static const char *wxSTD_FILE_SAVE_xpm[] = {
/* columns rows colors chars-per-pixel */
"24 24 4 1",
"  c None",
"o c #4C4C4C",
". c #4D4D4D",
"X c #525252",
/* pixels */
"                        ",
"                        ",
"                        ",
"                        ",
"    ..............      ",
"    .   .   X......     ",
"    .   .   X... ...    ",
"    .   .   X...  o.    ",
"    .   .   X...   .    ",
"    .   ........   .    ",
"    .              .    ",
"    .              .    ",
"    .  ..........  .    ",
"    .  .        .  .    ",
"    .  .        .  .    ",
"    .  .        .  .    ",
"    .  .        .  .    ",
"    .  .        .  .    ",
"    .  .        .  .    ",
"    ................    ",
"                        ",
"                        ",
"                        ",
"                        "
};

