/* XPM */
static const char *wxSTD_DELETE_xpm[] = {
/* columns rows colors chars-per-pixel */
"24 24 2 1",
"  c Black",
". c #DA4453",
/* pixels */
"                        ",
"                        ",
"                        ",
"                        ",
"         ......         ",
"         .    .         ",
"                        ",
"     ..............     ",
"                        ",
"       .        .       ",
"       .        .       ",
"       .        .       ",
"       .        .       ",
"       .        .       ",
"       .        .       ",
"       .        .       ",
"       .        .       ",
"       .        .       ",
"       .        .       ",
"       ..........       ",
"                        ",
"                        ",
"                        ",
"                        "
};

