/* XPM */
static const char *wxSTD_FILE_SAVE_AS_xpm[] = {
/* columns rows colors chars-per-pixel */
"24 24 7 1",
"  c None",
"@ c #4B4B4B",
"o c #4C4C4C",
". c #4D4D4D",
"O c #4E4E4E",
"+ c #4F4F4F",
"X c #525252",
/* pixels */
"                        ",
"                        ",
"                        ",
"                        ",
"    ..............      ",
"    .   .   X......     ",
"    .   .   X... ...    ",
"    .   .   X...  o.    ",
"    .   .   X...   .    ",
"    .   ........   .    ",
"    .              .    ",
"    .                   ",
"    .  ......      O.   ",
"    .  .          ...O  ",
"    .  .         ..+.O  ",
"    .  .        O.+..   ",
"    .  .       ..+..    ",
"    .  .      ..@..     ",
"    .  .      .+.O      ",
"    ......... ..O       ",
"                        ",
"                        ",
"                        ",
"                        "
};

