/* XPM */
static const char *wxSTD_ERROR_xpm[] = {
/* columns rows colors chars-per-pixel */
"24 24 139 2",
"   c None",
"y  c #D12639",
"e. c #BB1624",
"*. c #DA4A57",
"0  c #D6273A",
"r  c #CA2538",
">. c #C51E2E",
"/  c #D12033",
"u  c #D62437",
"w  c #DE6A77",
",  c #EC98A1",
"S  c #DB5A67",
"$  c #D92B40",
"X. c #CF1D30",
"@  c #D9283E",
"l  c #D42135",
"7  c #E36573",
"+. c #D64A57",
"s  c #DC6470",
"3. c #CD1D2E",
"s. c #BC1423",
",. c #C61F2F",
"$. c #C61F30",
"P  c #D22134",
"X  c #DC2C41",
".  c #DC2C42",
"n  c #CB2336",
";  c #D72539",
"D  c #D75765",
"g. c #BA1423",
"`  c #D7515D",
"_  c #E46974",
"O. c #D63848",
";. c #C91D2E",
"j. c #C41625",
"'  c #C21F31",
"~  c #CE2134",
"h. c #C91726",
"[  c #C72031",
"U  c #D32234",
"V  c #D32236",
"4. c #CE1B2D",
"*  c #EE9DA6",
"Y  c #E5707B",
"2. c #CC1E2E",
"w. c #BB1525",
"q. c #CC1B2D",
"7. c #C51D2E",
"O  c #DB2A3F",
"j  c #CF2537",
"1. c #CA1E2F",
"|  c #E36D77",
"f. c #C51727",
"K  c #CF2235",
"6. c #CA1B2D",
"2  c #EC949D",
".. c #CF1F31",
"d. c #CA1828",
"{  c #C82132",
"Z  c #D42335",
"8  c #EC919A",
"h  c #CD2537",
"<. c #C81E2E",
"J  c #CD2234",
"!  c #CD2235",
"d  c #C62436",
"k. c #C31424",
"E  c #C62132",
"g  c #CB2537",
"9  c #D7273B",
"I  c #D22033",
"H  c #CB2235",
"5  c #D02639",
"&. c #CB1F31",
"}  c #D94D5B",
"a. c #C61828",
"u. c #BA1625",
"N  c #D02337",
"0. c #CB1C2D",
">  c #E46B78",
"^  c #D02033",
"p. c #CB192A",
"i  c #D52437",
"+  c #DA283D",
"%. c #C91F30",
"-  c #DC5464",
"M  c #CE2336",
"i. c #FF0000",
"9. c #C91C2E",
"l. c #B81321",
"e  c #C72538",
":. c #C21E2E",
"k  c #D32437",
"=. c #CE1D2D",
"-. c #CE1D2E",
"t  c #CC2639",
"<  c #D8283C",
"C  c #D32134",
"F  c #E37B85",
"m  c #CC2336",
"8. c #C71C2D",
")  c #D12132",
"L  c #D12134",
"r. c #CC1A2B",
"6  c #D62539",
"o  c #DB293F",
"4  c #C82639",
" . c #CF2132",
"#. c #C31F30",
"b  c #C82335",
"o. c #CF1E30",
"#  c #D9293F",
"z  c #D42236",
"@. c #C11F30",
"1  c #D7293C",
"B  c #D22236",
"3  c #DF6F7C",
"5. c #CD1B2D",
"Q  c #E4737E",
"G  c #CB2436",
"W  c #D95260",
":  c #D7263A",
"]  c #C42031",
"t. c #CB1B2B",
"R  c #C42033",
"a  c #EA8791",
"x  c #ED949C",
"f  c #C92436",
"A  c #E77781",
"(  c #D01F31",
"y. c #C41A2A",
"c  c #EB949C",
"v  c #C72437",
"T  c #DA5662",
"&  c #E15465",
"=  c #D82A3E",
"%  c #D8273C",
"q  c #EB8E96",
"p  c #E26470",
/* pixels */
"                                                ",
"                                                ",
"    . X X X X X X X X X X X X X X X X X X .     ",
"    o O O O O O O O O O O O O O O O O O O o     ",
"    + @ @ @ @ # $ @ @ @ @ @ @ $ # @ @ @ @ +     ",
"    % % % % % & * = % % % % = * - % % % % %     ",
"    ; : : : : : > , < : : 1 2 3 4 5 : : : ;     ",
"    6 6 6 6 6 6 6 7 8 9 0 q w e r t y 6 6 6     ",
"    u i i i i i i i p a a s d f g h j k i u     ",
"    l z z z z z z z i x c v b n m M N B V l     ",
"    C C C C C C C Z A S D F G H J K L P C C     ",
"    I I I I I I U Y T R E W Q ! ~ ^ / I I I     ",
"    ( ( ( ( ( ) _ ` ' ] [ { } |  ...( ( ( (     ",
"    X.o.o.o.o.O.+.@.#.$.[ %.&.*.O.o.o.o.o.X.    ",
"    =.-.-.-.-.-.;.:.>.,.<.1.2.3.-.-.-.-.-.=.    ",
"    4.5.5.5.5.5.5.6.7.8.9.0.q.5.5.5.5.5.5.4.    ",
"    w.e.e.e.e.r.r.r.t.y.u.e.e.e.e.e.e.e.e.w.    ",
"            i.p.p.p.a.s.                        ",
"            i.d.d.f.g.                          ",
"            i.h.j.g.                            ",
"            i.k.g.                              ",
"            i.l.                                ",
"                                                ",
"                                                "
};

