/* XPM */
static const char *angelview_64x64_xpm[] = {
/* columns rows colors chars-per-pixel */
"64 64 3 1",
"X c Black",
"  c None",
". c #FF8000",
/* pixels */
"                                                                ",
"                                                                ",
"                           ..........                           ",
"                           ..........                           ",
"                           ..........                           ",
"                                                                ",
"                                                                ",
"        XXX                                           XXX       ",
"       XXXXX                ........                 XXXXX      ",
"      XXXXXXX             ............              XXXXXXX     ",
"      XXXXXXX            ..............             XXXXXXX     ",
"      XXXXXXXX          ................           XXXXXXXX     ",
"     XXXXXXXXXX         ................          XXXXXXXXX     ",
"     XXXXXXXXXX        ..................         XXXXXXXXXX    ",
"     XXXXXXXXXXX       ..................        XXXXXXXXXXX    ",
"     XXXXXXXXXXXX      ..................       XXXXXXXXXXXX    ",
"     XXXXXXXXXXXXX     ..................      XXXXXXXXXXXXX    ",
"     XXXXXXXXXXXXXX    ..................     XXXXXXXXXXXXXX    ",
"    XXXXXXXXXXXXXXXX   ..................    XXXXXXXXXXXXXXX    ",
"    XXXXXXXXXXXXXXXX   ..................   XXXXXXXXXXXXXXXXX   ",
"    XXXXXXXXXXXXXXXXX  ..................  XXXXXXXXXXXXXXXXXX   ",
"    XXXXXXXXXXXXXXXXX   ................   XXXXXXXXXXXXXXXXXX   ",
"    XXXXXXXXXXXXXXXXX    ..............    XXXXXXXXXXXXXXXXXX   ",
"    XXXXXXXXXXXXXXXXX    ..............     XXXXXXXXXXXXXXXXX   ",
"    XXXXXXXXXXXXXXXX       ..........       XXXXXXXXXXXXXXXXX   ",
"    XXXXXXXXXXXXXXX   ..    ........    ..   XXXXXXXXXXXXXXX    ",
"    XXXXXXXXXXXXXXX   ...              ...    XXXXXXXXXXXXXX    ",
"     XXXXXXXXXXXXX   .....            .....   XXXXXXXXXXXXXX    ",
"     XXXXXXXXXXXX   .........      .........   XXXXXXXXXXXXX    ",
"     XXXXXXXXXXXX   ........................   XXXXXXXXXXXXX    ",
"     XXXXXXXXXXX   ..........................   XXXXXXXXXXXX    ",
"      XXXXXXXXXX   ..........................   XXXXXXXXXXX     ",
"      XXXXXXXXX   ............................   XXXXXXXXXX     ",
"       XXXXXXXX   ............................   XXXXXXXXX      ",
"       XXXXXXXX  ..............................   XXXXXXXX      ",
"        XXXXXX   ..............................   XXXXXXX       ",
"         XXXXX   ...............................  XXXXXX        ",
"          XXX   ................................   XXXX         ",
"           XX   ................................   XX           ",
"               ..................................               ",
"               ..................................               ",
"               ..................................               ",
"               ...................................              ",
"              ....................................              ",
"              ....................................              ",
"              ....................................              ",
"             ......................................             ",
"             ......................................             ",
"             ......................................             ",
"             ......................................             ",
"             ......................................             ",
"            ........................................            ",
"            ........................................            ",
"            ........................................            ",
"            ........................................            ",
"            ........................................            ",
"            ........................................            ",
"            ........................................            ",
"             ......................................             ",
"                ................................                ",
"                      ....................                      ",
"                                                                ",
"                                                                ",
"                                                                "
};

