/* XPM */
static const char *angelview_48x48_xpm[] = {
/* columns rows colors chars-per-pixel */
"48 48 3 1",
"X c Black",
"  c None",
". c #FF8000",
/* pixels */
"                                                ",
"                     ......                     ",
"                    ........                    ",
"                                                ",
"                                                ",
"      XX                                 XX     ",
"     XXXX            .......            XXXX    ",
"     XXXXX         ..........          XXXXX    ",
"    XXXXXXX       ............        XXXXXXX   ",
"    XXXXXXX       ............        XXXXXXX   ",
"    XXXXXXXX     ..............      XXXXXXXX   ",
"    XXXXXXXXX    ..............     XXXXXXXXX   ",
"    XXXXXXXXXX   ..............    XXXXXXXXXX   ",
"   XXXXXXXXXXXX  ..............   XXXXXXXXXXX   ",
"   XXXXXXXXXXXX  ..............  XXXXXXXXXXXXX  ",
"   XXXXXXXXXXXXX  ............   XXXXXXXXXXXXX  ",
"   XXXXXXXXXXXXX  ............  XXXXXXXXXXXXXX  ",
"   XXXXXXXXXXXXX   ..........    XXXXXXXXXXXXX  ",
"   XXXXXXXXXXXX      .......      XXXXXXXXXXXX  ",
"   XXXXXXXXXXX   ..           ..  XXXXXXXXXXX   ",
"    XXXXXXXXXX  ....        ....   XXXXXXXXXX   ",
"    XXXXXXXXX  ......... ........  XXXXXXXXXX   ",
"    XXXXXXXX   ...................  XXXXXXXXX   ",
"    XXXXXXXX  ....................  XXXXXXXXX   ",
"     XXXXXXX  .....................  XXXXXXX    ",
"     XXXXXX  ......................  XXXXXXX    ",
"      XXXXX  ......................   XXXXX     ",
"       XXX  ........................  XXXX      ",
"        XX  ........................  XXX       ",
"            .........................           ",
"           ..........................           ",
"           ..........................           ",
"           ...........................          ",
"           ...........................          ",
"          ............................          ",
"          ............................          ",
"          .............................         ",
"          .............................         ",
"         ..............................         ",
"         ..............................         ",
"         ..............................         ",
"         ..............................         ",
"         ..............................         ",
"         ..............................         ",
"            ........................            ",
"                      .....                     ",
"                                                ",
"                                                "
};

