/* XPM */
static const char *show_edges_xpm[] = {
/* columns rows colors chars-per-pixel */
"28 23 2 1",
". c Black",
"  c None",
/* pixels */
"                            ",
"                            ",
"              ...           ",
"            ..   ..         ",
"           .       ..       ",
"         ..          ..     ",
"       ..              ..   ",
"      .                ..   ",
"    ..                . .   ",
"   .                 .  .   ",
"   ..               .   .   ",
"   . ....          .    .   ",
"   .     ...      .     .   ",
"   .        .... .      .   ",
"   .            .       .   ",
"   .            .      .    ",
"   .            .     .     ",
"   .            .    .      ",
"   ...          .   .       ",
"      .....     .  .        ",
"           .... . .         ",
"               ...          ",
"                            "
};

