/* XPM */
static const char *view_zneg_xpm[] = {
/* columns rows colors chars-per-pixel */
"23 28 2 1",
". c Black",
"  c None",
/* pixels */
"                       ",
"                       ",
"                       ",
"                       ",
"  ...................  ",
"  .                 .  ",
"  .                 .  ",
"  .                 .  ",
"  .                 .  ",
"  .                 .  ",
"  .                 .  ",
"  .                 .  ",
"  .                 .  ",
"  .                 .  ",
"  ...................  ",
"           ..          ",
"          ....         ",
"         ......        ",
"        ........       ",
"       ..........      ",
"          ....         ",
"          ....         ",
"          ....         ",
"          ....         ",
"          ....         ",
"                       ",
"                       ",
"                       "
};

