/* XPM */
static const char *view_xpos_xpm[] = {
/* columns rows colors chars-per-pixel */
"28 23 2 1",
". c Black",
"  c None",
/* pixels */
"                            ",
"                            ",
"    ...........             ",
"    .         .             ",
"    .         .             ",
"    .         .             ",
"    .         .    .        ",
"    .         .   ..        ",
"    .         .  ...        ",
"    .         . .........   ",
"    .         ...........   ",
"    .         ...........   ",
"    .         . .........   ",
"    .         .  ...        ",
"    .         .   ..        ",
"    .         .    .        ",
"    .         .             ",
"    .         .             ",
"    .         .             ",
"    .         .             ",
"    ...........             ",
"                            ",
"                            "
};

