/* XPM */
static const char *wxSTD_FILE_OPEN_xpm[] = {
/* columns rows colors chars-per-pixel */
"24 24 3 1",
"  c None",
"X c #4C4C4C",
". c #4D4D4D",
/* pixels */
"                        ",
"                        ",
"                        ",
"                        ",
"    .......X            ",
"    ........X           ",
"    ................    ",
"    ................    ",
"    ................    ",
"    ......         .    ",
"    .....          .    ",
"    .              .    ",
"    .              .    ",
"    .              .    ",
"    .              .    ",
"    .              .    ",
"    .              .    ",
"    .              .    ",
"    .              .    ",
"    ................    ",
"                        ",
"                        ",
"                        ",
"                        "
};

