/* XPM */
static const char *angel_64x64_xpm[] = {
/* columns rows colors chars-per-pixel */
"64 64 162 2",
">  c Black",
"=  c #CACACA",
":. c #0F0F0F",
"a  c #D9D9D9",
"{  c #1E1E1E",
"P  c #E8E8E8",
" . c #2D2D2D",
"U  c #F7F7F7",
"i. c #3C3C3C",
"2. c #696969",
"5  c #A5A5A5",
"G  c #B4B4B4",
"-. c #C3C3C3",
"-  c #D2D2D2",
"t. c #171717",
",  c #E1E1E1",
"x. c #262626",
"w. c #F0F0F0",
"c  c #FFFFFF",
"R  c #535353",
"J. c #626262",
"!  c #717171",
"G. c #808080",
"r. c #8F8F8F",
"c. c #9E9E9E",
"1. c #ADADAD",
"V  c #BCBCBC",
"O. c #010101",
"3  c #CBCBCB",
".. c #DADADA",
"^  c #1F1F1F",
"s  c #E9E9E9",
"n. c #4C4C4C",
"T  c #797979",
"Q  c #979797",
"y  c #B5B5B5",
"e  c #C4C4C4",
"k. c #090909",
"+. c #D3D3D3",
"D  c #181818",
"p  c #E2E2E2",
",. c #272727",
"]  c #F1F1F1",
"6. c #363636",
"~  c #454545",
"z. c #636363",
"j. c #727272",
"S. c #818181",
"[  c #AEAEAE",
"t  c #BDBDBD",
"K  c #020202",
"#  c #CCCCCC",
"n  c #111111",
"j  c #DBDBDB",
"h  c #EAEAEA",
"f. c #2F2F2F",
"0. c #F9F9F9",
"&. c #4D4D4D",
"y. c #898989",
"V. c #A7A7A7",
"z  c #B6B6B6",
"$. c #C5C5C5",
"l. c #D4D4D4",
"L  c #E3E3E3",
"#. c #F2F2F2",
"%. c #737373",
"@. c #919191",
"o. c #AFAFAF",
"8  c #BEBEBE",
"F  c #030303",
"v  c #CDCDCD",
"'  c #121212",
"x  c #DCDCDC",
"K. c #212121",
"8. c #EBEBEB",
"d. c #FAFAFA",
"7. c #6C6C6C",
"a. c #8A8A8A",
"0  c #B7B7B7",
"r  c #C6C6C6",
"o  c #D5D5D5",
"*. c #E4E4E4",
"d  c #F3F3F3",
"A. c #383838",
"Z. c #474747",
"$  c #838383",
"q. c #929292",
"I  c #B0B0B0",
"w  c #BFBFBF",
"3. c #040404",
"X  c #CECECE",
"4  c #DDDDDD",
"p. c #ECECEC",
"<. c #FBFBFB",
">. c #A9A9A9",
"q  c #B8B8B8",
".  c #C7C7C7",
"<  c #D6D6D6",
"H. c #1B1B1B",
"l  c #E5E5E5",
"g  c #F4F4F4",
";. c #393939",
"s. c #484848",
"C  c #666666",
"P. c #848484",
"u. c #939393",
"g. c #A2A2A2",
"B  c #B1B1B1",
"   c None",
"N  c #CFCFCF",
"A  c #DEDEDE",
"9. c #232323",
"}  c #EDEDED",
"h. c #FCFCFC",
"m. c #505050",
"C. c #5F5F5F",
"F. c #7D7D7D",
"e. c #AAAAAA",
"S  c #B9B9B9",
"u  c #C8C8C8",
";  c #D7D7D7",
"N. c #1C1C1C",
"/  c #E6E6E6",
":  c #2B2B2B",
"Z  c #494949",
"M  c #585858",
"b  c #676767",
"%  c #858585",
"b. c #949494",
"Y  c #B2B2B2",
"@  c #C1C1C1",
"O  c #D0D0D0",
"_  c #151515",
"E  c #DFDFDF",
")  c #EEEEEE",
"D. c #333333",
"`  c #FDFDFD",
"v. c #424242",
"=. c #515151",
"*  c #7E7E7E",
"X. c #8D8D8D",
"H  c #BABABA",
"+  c #C9C9C9",
"M. c #0E0E0E",
"W  c #D8D8D8",
"J  c #1D1D1D",
"i  c #E7E7E7",
"f  c #F6F6F6",
"5. c #3B3B3B",
"|  c #595959",
"L. c #777777",
"&  c #868686",
"(  c #B3B3B3",
"k  c #C2C2C2",
"m  c #070707",
"7  c #D1D1D1",
"2  c #E0E0E0",
"B. c #EFEFEF",
"1  c #343434",
"4. c #707070",
"6  c #ACACAC",
"9  c #BBBBBB",
/* pixels */
"                                                                                                                                ",
"                                                    . X o o o o o o o O + @                                                     ",
"                                                  # o $ % & & & & & & * = -                                                     ",
"                                                  ; : > > > > > > > > > > ,                                                     ",
"                                                  < 1 > > > > > > > > > > 2                                                     ",
"                                                  3 4 5 6 6 6 6 6 6 6 5 7 O                                                     ",
"            8 9 0 q 9 w                             e + X X X X X X X = r @                             w 9 q 0 9 8             ",
"          t y u i p 8 0 8                           @ = a s d f g h j # k                             8 0 8 p l u y t           ",
"        w z x c c c c v q w                       + 4 ; b n > > > m M N , 3                         w q v c c c c x z w         ",
"        t y c c c c c c B V                     N l C > > > > > > > > > Z A - @                     t B c c c c c c y t         ",
"        S O c c c c c c 4 z w                 X A D > > > > > > > > > > > F - 7                   w z j c c c c c c O S         ",
"        G s c c c c c c c H H w             . s J > > > > > > > > > > > > > K L =                 H H c c c c c c c P G         ",
"      w I c c c c c c c c U Y V             a T > > > > > > > > > > > > > > > R E @             V B U c c c c c c c c I w       ",
"      t y c c c c c c c c c 2 G 8         r i > > > > > > > > > > > > > > > > > W =           8 G A c c c c c c c c c y t       ",
"      H 3 c c c c c c c c c c 3 z 8       7 Q > > > > > > > > > > > > > > > > > ! ;         8 z 3 c c c c c c c c c c 3 H       ",
"      0 4 c c c c c c c c c c c k q w     E ~ > > > > > > > > > > > > > > > > > ^ /       w q k c c c c c c c c c c c 4 0       ",
"      ( ) c c c c c c c c c c c c t q 8   i _ > > > > > > > > > > > > > > > > > > )     8 q t c c c c c c c c c c c c ) (       ",
"      B ` c c c c c c c c c c c c c w 0 8 h ' > > > > > > > > > > > > > > > > > > ]   8 0 w c c c c c c c c c c c c c ` B       ",
"    w [ c c c c c c c c c c c c c c c = S l { > > > > > > > > > > > > > > > > > > } t y u c c c c c c c c c c c c c c c [ w     ",
"    w [ c c c c c c c c c c c c c c c c Y j | > > > > > > > > > > > > > > > > >  .L 0 ..c c c c c c c c c c c c c c c c [ w     ",
"    8 H c c c c c c c c c c c c c c c c B 3 G > > > > > > > > > > > > > > > > > X.- o.c c c c c c c c c c c c c c c c c H 8     ",
"    t S c c c c c c c c c c c c c c c c 7 V h O.> > > > > > > > > > > > > > > > / @ e c c c c c c c c c c c c c c c c c S t     ",
"    V e c c c c c c c c c c c c c c c c c y +.B > > > > > > > > > > > > > > > @.W S #.c c c c c c c c c c c c c c c c c k V     ",
"    V $.c c c c c c c c c c c c c c c c A q e E %.> > > > > > > > > > > > > &.*.r H + c c c c c c c c c c c c c c c c c e V     ",
"    V S c c c c c c c c c c c c c c c #.B . = - *.%.> > > > > > > > > > > =.P o # 3 z x c c c c c c c c c c c c c c c c S t     ",
"    8 H c c c c c c c c c c c c c c c 0 -.l ;.A ..2 9 :.> > > > > > > > >.L W i ,.O 3 Y <.c c c c c c c c c c c c c c c q 8     ",
"    w 1.c c c c c c c c c c c c c c +.H 4 2.> 3.j 4 W i # 4.5.;.6.7.t 8.a j / 9.> ^ P   t c c c c c c c c c c c c c c c 1.w     ",
"      o.c c c c c c c c c c c c c 0.B X r > > > > q.w.j +.W 2 L 2 a +.a } e.> > > > r.W z L c c c c c c c c c c c c c c I       ",
"      ( #.c c c c c c c c c c c c @   h t.> > > > > O.y.p #.s i P w.8.Q _ > > > > > > 2 . y c c c c c c c c c c c c c #.(       ",
"      0 4 c c c c c c c c c c c ) ( o u.> > > > > > > > > > J i.,.O.> > > > > > > > > =.2 S ..c c c c c c c c c c c c 4 0       ",
"      9 k c c c c c c c c c c c 9 k 8.> > > > > > > > > > > > > > > > > > > > > > > > > 3 3 Y c c c c c c c c c c c c k 9       ",
"      8 o.c c c c c c c c c c p.G ; & > > > > > > > > > > > > > > > > > > > > > > > > > ;.*.H ..c c c c c c c c c c c o.8       ",
"        0 4 c c c c c c c c c   k p.> > > > > > > > > > > > > > > > > > > > > > > > > > > # = B c c c c c c c c c c 4 0         ",
"        V y c c c c c c c c g Y o a.> > > > > > > > > > > > > > > > > > > > > > > > > > > s., 0 A c c c c c c c c c y V         ",
"        w z ..c c c c c c c 3 8 ) > > > > > > > > > > > > > > > > > > > > > > > > > > > > > A r 0 c c c c c c c c x z w         ",
"          t ( d.c c c c c c o.N B > > > > > > > > > > > > > > > > > > > > > > > > > > > > > 2.j ( ) c c c c c c d.( t           ",
"          w H S c c c c c A q l f.> > > > > > > > > > > > > > > > > > > > > > > > > > > > > > }   r c c c c c c S H w           ",
"            w S S c c c c q r E > > > > > > > > > > > > > > > > > > > > > > > > > > > > > > > g.O o.c c c c c V S w             ",
"              w S y s c h.Y W j.> > > > > > > > > > > > > > > > > > > > > > > > > > > > > > > f.l 0 p c c p.y S w               ",
"                w V G $.O V } k.> > > > > > > > > > > > > > > > > > > > > > > > > > > > > > > > s -.k c . ( 9 w                 ",
"                    8 t t = X > > > > > > > > > > > > > > > > > > > > > > > > > > > > > > > > > a.l.H q S 8                     ",
"                          ..z.> > > > > > > > > > > > > > > > > > > > > > > > > > > > > > > > > x.i                             ",
"                        @ p.:.> > > > > > > > > > > > > > > > > > > > > > > > > > > > > > > > > > P r                           ",
"                        u , > > > > > > > > > > > > > > > > > > > > > > > > > > > > > > > > > > > c.-                           ",
"                        l.a.> > > > > > > > > > > > > > > > > > > > > > > > > > > > > > > > > > > v.,                           ",
"                        L ;.> > > > > > > > > > > > > > > > > > > > > > > > > > > > > > > > > > > > ] k                         ",
"                      k #.> > > > > > > > > > > > > > > > > > > > > > > > > > > > > > > > > > > > > ; u                         ",
"                      u ; > > > > > > > > > > > > > > > > > > > > > > > > > > > > > > > > > > > > > r.+.                        ",
"                      - b.> > > > > > > > > > > > > > > > > > > > > > > > > > > > > > > > > > > > > n.2                         ",
"                      A m.> > > > > > > > > > > > > > > > > > > > > > > > > > > > > > > > > > > > > M.8.                        ",
"                      s N.> > > > > > > > > > > > > > > > > > > > > > > > > > > > > > > > > > > > > > f k                       ",
"                      #.> > > > > > > > > > > > > > > > > > > > > > > > > > > > > > > > > > > > > > > W .                       ",
"                    -.B.> > > > > > > > > > > > > > > > > > > > > > > > > > > > > > > > > > > > > > > V.X                       ",
"                    u + > > > > > > > > > > > > > > > > > > > > > > > > > > > > > > > > > > > > > > > & o                       ",
"                    X 1.> > > > > > > > > > > > > > > > > > > > > > > > > > > > > > > > > > > > > > > C.j                       ",
"                    - y.> > > > > > > > > > > > > > > > > > > > > > > > > > > > > > > > > > > > > > > Z.2                       ",
"                    o & > > > > > > > > > > > > > > > > > > > > > > > > > > > > > > > > > > > > > > > A.L                       ",
"                    7 S.> > > > > > > > > > > > > > > > > > > > > > > > > > > > > > > > > > > > > > > D.A                       ",
"                    = B > > > > > > > > > > > > > > > > > > > > > > > > > > > > > > > > > > > > > > > F.-                       ",
"                    -.< E G.H.> > > > > > > > > > > > > > > > > > > > > > > > > > > > > > > > > M.J.o j r                       ",
"                        u < i ] w & m.: 3.> > > > > > > > > > > > > > > > > > > > > > K.Z.L.B s 8.a 3 @                         ",
"                              -.3 o A / } d 0., l.y 6 [ y.& & & & & P.>.1.e.o < d.g B.P 2 ; v $.                                ",
"                                            @ -.u 3 v O - o o o o o +.7 X # + e k                                               ",
"                                                                                                                                "
};

