/* XPM */
static const char *angel_32x32_xpm[] = {
/* columns rows colors chars-per-pixel */
"32 32 115 2",
"+  c Black",
"t  c #D9D9D9",
")  c #E8E8E8",
"X. c #2D2D2D",
"v  c #F7F7F7",
"&. c #5A5A5A",
":. c #787878",
".. c #969696",
"Y  c #A5A5A5",
"8  c #B4B4B4",
"*. c #C3C3C3",
".  c #D2D2D2",
" . c #E1E1E1",
"_  c #262626",
"4  c #FFFFFF",
"N  c #ADADAD",
"]  c #BCBCBC",
"0  c #CBCBCB",
"O  c #101010",
"n  c #E9E9E9",
"2. c #2E2E2E",
"{  c #F8F8F8",
"b  c #B5B5B5",
"y  c #C4C4C4",
"o  c #090909",
"p  c #D3D3D3",
"/  c #E2E2E2",
"-  c #272727",
"+. c #F1F1F1",
"X  c #363636",
"I  c #AEAEAE",
"%  c #BDBDBD",
",. c #CCCCCC",
"=  c #202020",
"=. c #EAEAEA",
";. c #2F2F2F",
"H  c #F9F9F9",
"1  c #B6B6B6",
"i  c #C5C5C5",
"h  c #D4D4D4",
"K  c #191919",
"R  c #E3E3E3",
"*  c #464646",
"A  c #555555",
"F  c #646464",
"&  c #BEBEBE",
"<  c #CDCDCD",
"@. c #DCDCDC",
"3  c #EBEBEB",
"^  c #4E4E4E",
"g  c #B7B7B7",
"7  c #C6C6C6",
"Q  c #0B0B0B",
"f  c #D5D5D5",
"q  c #E4E4E4",
"z  c #F3F3F3",
"O. c #474747",
"!  c #747474",
"%. c #929292",
"c  c #B0B0B0",
"$  c #BFBFBF",
"M  c #CECECE",
"k  c #DDDDDD",
"|  c #4F4F4F",
"U  c #6D6D6D",
"D  c #B8B8B8",
"-. c #C7C7C7",
">. c #D6D6D6",
"a  c #E5E5E5",
"e  c #2A2A2A",
"<. c #393939",
"(  c #484848",
"3. c #666666",
"4. c #848484",
"E  c #B1B1B1",
"   c None",
"B  c #FCFCFC",
"@  c #8C8C8C",
"d  c #AAAAAA",
",  c #B9B9B9",
"#  c #C8C8C8",
"`  c #D7D7D7",
"$. c #1C1C1C",
"j  c #E6E6E6",
"[  c #F5F5F5",
"'  c #585858",
"9  c #B2B2B2",
"J  c #C1C1C1",
"2  c #D0D0D0",
"6  c #DFDFDF",
"s  c #333333",
"5  c #FDFDFD",
"w  c #7E7E7E",
"x  c #9C9C9C",
"P  c #ABABAB",
">  c #BABABA",
"o. c #C9C9C9",
"G  c #D8D8D8",
"W  c #E7E7E7",
"L  c #777777",
":  c #959595",
"~  c #A4A4A4",
"l  c #B3B3B3",
"r  c #C2C2C2",
"Z  c #D1D1D1",
";  c #161616",
"}  c #E0E0E0",
"1. c #252525",
"S  c #EFEFEF",
"T  c #343434",
"C  c #FEFEFE",
"#. c #616161",
"m  c #707070",
"V  c #7F7F7F",
"u  c #BBBBBB",
/* pixels */
"                                                                ",
"                        . X o O O + @ #                         ",
"    $ % % & $           . * = - - ; : #           $ & % % $     ",
"  $ > , < 1 >           2 3 4 4 4 5 6 7           > 1 < , > $   ",
"  & 8 4 4 4 9 %       0 q w + + + e r t y       % 9 4 4 4 8 &   ",
"  u i 4 4 4 p 1 $   7 a s + + + + + + d f     $ 1 p 4 4 4 7 u   ",
"  g 6 4 4 4 4 > , $ h @ + + + + + + + + j i $ , > 4 4 4 4 k g   ",
"  l z 4 4 4 4 5 8 > q ; + + + + + + + + x < > 8 5 4 4 4 4 z l   ",
"  c 4 4 4 4 4 4 v b n + + + + + + + + + m M 8 v 4 4 4 4 4 4 c   ",
"  N 4 4 4 4 4 4 4 B k + + + + + + + + + V M C 4 4 4 4 4 4 4 N   ",
"  l 4 4 4 4 4 4 4 4 Z A + + + + + + + + < S 4 4 4 4 4 4 4 4 l   ",
"  D 4 4 4 4 4 4 4 4 6 k + + + + + + + F G 4 4 4 4 4 4 4 4 4 D   ",
"  l 4 4 4 4 4 4 4 H 2 J n K + + + + L 4 P Z 4 4 4 4 4 4 4 4 l   ",
"  I 4 4 4 4 4 4 4 . U + Y 4 j I > 4 4 T + < R 4 4 4 4 4 4 4 I   ",
"  E 5 4 4 4 4 4 W Z + + + Q ! ~ : ^ + + + s f 4 4 4 4 4 4 5 E   ",
"  1 / 4 4 4 4 4 . ( + + + + + + + + + + + + b 6 4 4 4 4 4 / 1   ",
"  u u 4 4 4 4 ) 2 + + + + + + + + + + + + + _ ` 4 4 4 4 4 u u   ",
"  $ b j 4 4 4 . ' + + + + + + + + + + + + + + 7 a 4 4 4 j b $   ",
"    ] b [ 4 { } + + + + + + + + + + + + + + + | p 4 4 v b ]     ",
"    $ u 8  ./ ..+ + + + + + + + + + + + + + + + j {  .l u $     ",
"      $ % u } X.+ + + + + + + + + + + + + + + + Y o., ] $       ",
"          i S + + + + + + + + + + + + + + + + + O.}             ",
"          M N + + + + + + + + + + + + + + + + + + +.r           ",
"          @.#.+ + + + + + + + + + + + + + + + + + f #           ",
"          ) $.+ + + + + + + + + + + + + + + + + + %..           ",
"          z + + + + + + + + + + + + + + + + + + + &.k           ",
"        *.=.+ + + + + + + + + + + + + + + + + + + X.a           ",
"        -.o.+ + + + + + + + + + + + + + + + + + + Q 3           ",
"        -.8 + + + + + + + + + + + + + + + + + + + + a           ",
"        y p ;.+ + + + + + + + + + + + + + + + + + :.>.          ",
"          ,.k +.< x L ' * <.- _ 1.2.<.^ 3.4.P R =.>.7           ",
"                                                                "
};

