/* XPM */
static const char *angel_16x16_xpm[] = {
/* columns rows colors chars-per-pixel */
"16 16 63 1",
", c Black",
"s c #D9D9D9",
"A c #878787",
"$ c #C3C3C3",
"d c #262626",
"; c #FFFFFF",
"r c #626262",
"2 c #BCBCBC",
"- c #E9E9E9",
"h c #F8F8F8",
"S c #979797",
"o c #B5B5B5",
"* c #D3D3D3",
"p c #363636",
"t c #727272",
"1 c #DBDBDB",
"j c #EAEAEA",
"% c #989898",
"k c #F2F2F2",
"a c #EBEBEB",
". c #A8A8A8",
"6 c #B7B7B7",
": c #E4E4E4",
"4 c #F3F3F3",
"7 c #656565",
"+ c #BFBFBF",
"# c #CECECE",
"N c #ECECEC",
"f c #5E5E5E",
"y c #8B8B8B",
"8 c #A9A9A9",
"O c #B8B8B8",
"0 c #C7C7C7",
"& c #939393",
"D c #B1B1B1",
"  c None",
"B c #DEDEDE",
"< c #8C8C8C",
"@ c #B9B9B9",
"= c #C8C8C8",
"c c #E6E6E6",
"z c #767676",
"x c #B2B2B2",
"w c #C1C1C1",
"5 c #D0D0D0",
"q c #FDFDFD",
"b c #606060",
"X c #7E7E7E",
"V c #ABABAB",
"n c #1D1D1D",
"m c #E7E7E7",
"9 c #F6F6F6",
"> c #595959",
"e c #777777",
"C c #868686",
"g c #B3B3B3",
"M c #C2C2C2",
"l c #D1D1D1",
"v c #252525",
"3 c #FEFEFE",
"i c #434343",
"Z c #7F7F7F",
"u c #BBBBBB",
/* pixels */
"      .XXo      ",
" O+@+#$%&*=+@+O ",
" -;@+:>,,<12@;- ",
" 3;4+%,,,,564;3 ",
" ;;;;7,,,,89;;; ",
"$;;;;0,,,,q;;;;$",
"w;;;;e=rt y;;;;w",
" ;;;u,,ip,,a;;; ",
" s;;d,,,,,,f;;s ",
" ghj,,,,,,,,;kg ",
" 2lz,,,,,,,,x02 ",
"  cv,,,,,,,,b1  ",
" wk,,,,,,,,,nm  ",
" M:,,,,,,,,,,N  ",
" Ml,,,,,,,,,,B  ",
"    V&CXZASD    "
};

