/* XPM */
static const char *angel_48x48_xpm[] = {
/* columns rows colors chars-per-pixel */
"48 48 143 2",
"*  c Black",
"$  c #CACACA",
"9  c #D9D9D9",
"l. c #1E1E1E",
"F  c #E8E8E8",
"X. c #F7F7F7",
"k. c #3C3C3C",
":  c #4B4B4B",
",. c #696969",
"c. c #787878",
"}  c #A5A5A5",
"q  c #B4B4B4",
"C  c #C3C3C3",
"k  c #D2D2D2",
"r  c #E1E1E1",
"~  c #262626",
"+  c #F0F0F0",
"a  c #FFFFFF",
"8. c #535353",
"s. c #9E9E9E",
"v. c #ADADAD",
",  c #BCBCBC",
"d  c #CBCBCB",
"[  c #101010",
"W  c #DADADA",
"R  c #E9E9E9",
"Y  c #2E2E2E",
"o. c #F8F8F8",
"s  c #B5B5B5",
"w  c #C4C4C4",
"-  c #D3D3D3",
"V  c #181818",
"z  c #E2E2E2",
"O. c #272727",
"1. c #F1F1F1",
"x. c #545454",
"h. c #636363",
"f  c #AEAEAE",
"b  c #BDBDBD",
"q. c #020202",
"0  c #CCCCCC",
"7  c #DBDBDB",
"4. c #EAEAEA",
"|  c #2F2F2F",
"#. c #F9F9F9",
"U  c #989898",
"M  c #B6B6B6",
"%  c #C5C5C5",
"Z  c #D4D4D4",
"o  c #E3E3E3",
"'  c #F2F2F2",
"/  c #373737",
"B  c #828282",
"j. c #919191",
"I  c #AFAFAF",
"2  c #BEBEBE",
"l  c #CDCDCD",
"7. c #DCDCDC",
"S  c #EBEBEB",
"P  c #303030",
"J  c #FAFAFA",
"H  c #5D5D5D",
"<. c #8A8A8A",
"9. c #999999",
"@. c #A8A8A8",
";  c #B7B7B7",
"p  c #C6C6C6",
"X  c #D5D5D5",
"a. c #1A1A1A",
" . c #E4E4E4",
"f. c #292929",
"t  c #F3F3F3",
"y. c #474747",
"p. c #A1A1A1",
"c  c #B0B0B0",
">  c #BFBFBF",
"3. c #040404",
"^  c #CECECE",
"h  c #131313",
"#  c #DDDDDD",
"6. c #ECECEC",
"_  c #313131",
"=. c #6D6D6D",
";. c #7C7C7C",
"L  c #9A9A9A",
"]  c #A9A9A9",
"A  c #B8B8B8",
"i  c #C7C7C7",
"u  c #D6D6D6",
"e. c #1B1B1B",
"3  c #E5E5E5",
".. c #F4F4F4",
"=  c #393939",
"r. c #575757",
"d. c #939393",
"v  c #B1B1B1",
"   c None",
"g. c #050505",
"m  c #CFCFCF",
")  c #DEDEDE",
"6  c #EDEDED",
"-. c #FCFCFC",
"x  c #414141",
"`  c #505050",
"&. c #9B9B9B",
"D  c #B9B9B9",
"G  c #C8C8C8",
"N  c #D7D7D7",
"@  c #E6E6E6",
"4  c #F5F5F5",
"+. c #494949",
"2. c #858585",
"(  c #B2B2B2",
"E  c #C1C1C1",
"z. c #060606",
"e  c #D0D0D0",
"!  c #151515",
"n  c #242424",
"O  c #EEEEEE",
"g  c #333333",
">. c #FDFDFD",
"w. c #606060",
"%. c #6F6F6F",
"Q  c #7E7E7E",
"u. c #ABABAB",
"<  c #BABABA",
"8  c #C9C9C9",
"y  c #E7E7E7",
"i. c #2C2C2C",
"5  c #F6F6F6",
"T  c #595959",
"t. c #686868",
"{  c #777777",
"&  c #B3B3B3",
".  c #C2C2C2",
"5. c #070707",
":. c #D1D1D1",
"*. c #E0E0E0",
"$. c #EFEFEF",
"0. c #343434",
"K  c #FEFEFE",
"j  c #7F7F7F",
"1  c #BBBBBB",
/* pixels */
"                                                                                                ",
"                                    . X o O + + + + @ # $                                       ",
"                                    % & * * * * * * * = -                                       ",
"                                    % ; * * * * * * * : -                                       ",
"        > , < 1 2                   . - 3 4 5 5 5 5 6 7 8                     2 1 < , >         ",
"      2 ; 2 9 0 q ,                   w e r + 5 t y u i                     , q 0 9 2 ; 2       ",
"      < p a a a @ s >               d o f g * * * h j 3 k .               > s @ a a a p <       ",
"    > q + a a a a 1 <             l z x * * * * * * * * p u .             < 1 a a a a + q       ",
"    2 c a a a a a 5 v b         i y n * * * * * * * * * * m m           b v 5 a a a a a f >     ",
"    , 2 a a a a a a u M 2       N B * * * * * * * * * * * V @ C       2 M Z a a a a a a b ,     ",
"    A X a a a a a a a . A >   C S * * * * * * * * * * * * * D l     > A . a a a a a a a X A     ",
"    s F a a a a a a a a D D > G p * * * * * * * * * * * * * H 9   > D D a a a a a a a a F s     ",
"    v J a a a a a a a a K A D l L * * * * * * * * * * * * * P z > D A K a a a a a a a a J v     ",
"  > I a a a a a a a a a a a 2 G U * * * * * * * * * * * * * Y r ; , a a a a a a a a a a a I >   ",
"  > I a a a a a a a a a a a a , p * * * * * * * * * * * * * T Z i a a a a a a a a a a a a I >   ",
"  2 ; a a a a a a a a a a a a ; R * * * * * * * * * * * * * s E 5 a a a a a a a a a a a a ; 2   ",
"  b D a a a a a a a a a a a a W k Q * * * * * * * * * * * ! @ > a a a a a a a a a a a a a A b   ",
"  b > a a a a a a a a a a a a # . @ ~ * * * * * * * * * * 0 m 2 a a a a a a a a a a a a a > b   ",
"  2 M a a a a a a a a a a a t b ^ z O / * * * * * * * * i S ^ $ 8 a a a a a a a a a a a a M 2   ",
"  > ( a a a a a a a a a a a , ) _ ` 4 ' ] Y * * * [ { 6 ' M * e . R a a a a a a a a a a a c >   ",
"  > f a a a a a a a a a a X 0 } * * |  .4 ..X.o.X.4 ..X.{ * * O.o < a a a a a a a a a a a I >   ",
"    ( o.a a a a a a a a a 1 o * * * * * +.@.r #.$.. %.* * * * * &.l N a a a a a a a a a o.(     ",
"    M *.a a a a a a a a $ Z =.* * * * * * * * * * * * * * * * * * y D a a a a a a a a a *.M     ",
"    1 . a a a a a a a -.< z * * * * * * * * * * * * * * * * * * * ;.:.Z a a a a a a a a . 1     ",
"    2 v >.a a a a a a m Z ,.* * * * * * * * * * * * * * * * * * * * y A a a a a a a a >.v 2     ",
"      D 0 a a a a a a A y * * * * * * * * * * * * * * * * * * * * * <.l 7 a a a a a a 0 D       ",
"      2 & 1.a a a a 7 l 2.* * * * * * * * * * * * * * * * * * * * * 3.4.D a a a a a 1.& 2       ",
"        1 s -.a a a A R 5.* * * * * * * * * * * * * * * * * * * * * * s C 6.a a a a s 1         ",
"        > < ; t a o.E 2 * * * * * * * * * * * * * * * * * * * * * * * x 7.8 a a ..; < >         ",
"          > 1 & - e 9 8.* * * * * * * * * * * * * * * * * * * * * * * * 6.1 a - ( 1 >           ",
"              2 ,   $.* * * * * * * * * * * * * * * * * * * * * * * * * 9.^ A D b               ",
"                  ^ M * * * * * * * * * * * * * * * * * * * * * * * * * 0. .                    ",
"                  # T * * * * * * * * * * * * * * * * * * * * * * * * * * ' w                   ",
"                E 6 q.* * * * * * * * * * * * * * * * * * * * * * * * * * q ^                   ",
"                i z * * * * * * * * * * * * * * * * * * * * * * * * * * * w.7                   ",
"                :.L * * * * * * * * * * * * * * * * * * * * * * * * * * * e.R                   ",
"                ) r.* * * * * * * * * * * * * * * * * * * * * * * * * * * * ' C                 ",
"                R V * * * * * * * * * * * * * * * * * * * * * * * * * * * * 0 8                 ",
"                t * * * * * * * * * * * * * * * * * * * * * * * * * * * * * 9.:.                ",
"              C 6.* * * * * * * * * * * * * * * * * * * * * * * * * * * * * t.W                 ",
"              G 8 * * * * * * * * * * * * * * * * * * * * * * * * * * * * * y.*.                ",
"              l u.* * * * * * * * * * * * * * * * * * * * * * * * * * * * * i.3                 ",
"              ^ p.* * * * * * * * * * * * * * * * * * * * * * * * * * * * * a.y                 ",
"              $ s.* * * * * * * * * * * * * * * * * * * * * * * * * * * * * e.7                 ",
"              w # d.f.* * * * * * * * * * * * * * * * * * * * * * * * * g.h.m ^                 ",
"                % k  .1.% j.w.k.l.z.* * * * * * * * * * * * h | x.c.v.@ 6.9 $ E                 ",
"                      C 8 - 7 o F 6 1...X.$.$.+ + O ..4 t $.S 3 ) N l % E                       ",
"                                                                                                "
};

