/* XPM */
static const char *openscad_xpm[] = {
/* columns rows colors chars-per-pixel */
"20 16 258 2",
"ZX c #FFEC1C",
"iX c Black",
"1X c #37581E",
"YX c #D2C692",
"9X c #B34057",
",. c #8D7272",
"%  c #FFFFE4",
"JX c #FFF9D1",
"V  c #715900",
"   c #FFFFE5",
"4X c #FFFFE6",
"$  c #FFFFE7",
"1. c #F9E5D4",
"4  c #FFFFE9",
"mX c #FFFFEA",
"m  c #C19486",
"X. c #8D342F",
"5  c #FFFFEB",
"B  c #FFFFEC",
"LX c #FBE469",
"&  c #FFFFED",
"2X c #49681C",
"X  c #C1C6AF",
"IX c #E2CA52",
"MX c #FFFFEF",
"F  c #796A16",
"c  c #372300",
"3  c #FFFFF2",
".. c #C6834A",
"OX c #FFFFF5",
"sX c #FFFFF6",
"9. c #D6B924",
"nX c #A0988A",
"a  c #FFFFF8",
"aX c #FFFFF9",
"e  c #CDFF71",
"|. c #A2314E",
"R  c #FFFFFB",
"F. c #C15955",
"-  c #071B00",
"U. c #5E1638",
"s  c #FFFFFE",
"*  c #FFFFFF",
"$. c #A9921D",
"A  c #9F8A1B",
"j  c #745D0E",
"@X c #C8514F",
"3. c #D2533D",
"l. c #958221",
":X c #E8C928",
"cX c #D1AC1B",
"&. c #816F15",
"<X c #86CE47",
".X c #78A93C",
"). c #A94C46",
"7  c #211000",
"Q  c #D5C31A",
"9  c #37461B",
"K  c #40380B",
"pX c #D0C9C8",
"<. c #D0C3B4",
"{  c #A78600",
"V. c #A8686F",
"f  c #543F00",
",X c #B3F26C",
"6X c #D86764",
"Z  c #A58F1C",
"b  c #8C780E",
"r. c #664152",
"#X c #D9776D",
"0  c #6C9E43",
"~  c #C1AA1C",
"5X c #D66D6F",
";. c #DAFF7A",
"%. c #96801A",
"tX c #ADCF4E",
"uX c #000800",
"3X c #455C21",
"_. c #2C1C0B",
"E  c #D2D4A6",
"b. c #6C4631",
"W  c #BBB000",
"`  c #4B410B",
"D. c #AA4D4D",
"6. c #7F4F57",
"fX c #DA5252",
"xX c #DFBC23",
"q. c #AD941C",
"|  c #836C67",
"W. c #B1A070",
"8. c #F4D921",
"Y. c #883E46",
",  c #93C83E",
"7X c #DC7259",
">. c #A9864B",
"6  c #93918C",
"q  c #A5E763",
"t  c #8D7C0B",
"[. c #DDBF26",
")  c #806D16",
"hX c #BD8725",
"t. c #754460",
"v. c #AE9E17",
"^  c #B0981D",
"U  c #A3818F",
"]  c #281900",
"eX c #EFCF29",
"G  c #655911",
"O  c #B4CD86",
"j. c #72544D",
"+. c #DBBC23",
";X c #FED82C",
"*X c #330B11",
" X c #6A8C35",
"x. c #D1B424",
"C  c #9F860C",
"=X c #471B1D",
"J. c #2B200D",
"S  c #95811B",
"J  c #292307",
";  c #0A2100",
"@  c #D5EFA2",
"h. c #DA6C67",
"}  c #A78C81",
"}. c #781042",
"lX c #FFE22D",
"d. c #D56561",
"7. c #7B4658",
"w. c #988517",
"r  c #A7C953",
"2  c #AAD049",
"B. c #A99A51",
"+  c #C4E090",
".  c #FBFBE5",
"SX c #F0CD1A",
"i. c #A88441",
"H. c #230C14",
"o. c #761348",
"M. c #A9C35D",
"z. c #FAD829",
"o  c #AFC092",
"T. c #9D4C5B",
"!  c #D3C518",
"z  c #120000",
"Z. c #DF9C95",
"vX c #8D901D",
"&X c #CE5E5B",
"u  c #CC906B",
"]. c #F0CD2A",
"/. c #B34D4D",
"L. c #E1C127",
"UX c #D4C167",
"-X c #FFFF31",
"'. c #FFFF32",
"+X c #F0D1C3",
"g  c #7D6B0A",
"(  c #917E19",
"K. c #FFFC2E",
"k. c #664055",
"^. c #C86A59",
"zX c #F3D12A",
"p. c #9D7277",
"P  c #94820E",
"~. c #C5605C",
"_  c #695B12",
">  c #79A62F",
"!. c #E0A69D",
"y  c #C19D00",
"=. c #483915",
"$X c #C05349",
"8X c #CE5259",
"y. c #BFEA72",
"n  c #CCB509",
"R. c #9BDB4D",
"{. c #C9AE1A",
"jX c #E2CB3E",
"n. c #7D5156",
"N. c #B5FF58",
"d  c #C0BDB3",
"C. c #F7F2DE",
"a. c #DBCBBB",
"m. c #793148",
"P. c #CEB222",
" . c #D9D1C1",
"Q. c #FEF0E9",
">X c #D8B418",
"PX c #F1D750",
"D  c #887717",
"T  c #FAF9E4",
"l  c #361400",
"2. c #D84E53",
"v  c #624E0B",
"G. c #AA6F68",
"x  c #0A0000",
"L  c #655812",
"=  c #C3C1BE",
"u. c #C6FF69",
"I. c #C3B417",
"BX c #FFFF82",
"VX c #FFFE00",
":. c #A2C134",
"'  c #1F1A00",
"8  c #363100",
"AX c #FFDE20",
"5. c #914C4C",
"S. c #BD5D4E",
"oX c #E6D7CE",
"i  c #AF6D76",
"%X c #CB5959",
":  c #527819",
"wX c #FFDE2D",
"e. c #7A6C13",
"0. c #C0A421",
"#. c #BBA020",
"I  c #D4B72F",
"/  c #A28C1C",
"[  c #5B3E00",
"rX c #DEB61C",
"bX c #4B4800",
"GX c #725500",
"NX c #FDF1E5",
"(. c #C45554",
"CX c #FFF811",
"M  c #A47574",
"p  c #DCC3BB",
"E. c #98D942",
"FX c #AF8F00",
"c. c #BEA421",
"N  c #DAC9BF",
"1  c #A3EE3E",
"H  c #483E0C",
"s. c #E7A99F",
"TX c #F4F3DC",
"qX c #B1952E",
"DX c #D5B50E",
"Y  c #8C6861",
"f. c #C55C4B",
"#  c #E9F8C4",
"<  c #A5E544",
"k  c #593B02",
"h  c #826E15",
"HX c #BDB5A9",
"kX c #FFF830",
"A. c #CF6762",
"0X c #5C0539",
"-. c #B09A8D",
"XX c #6BA322",
"g. c #BB5152",
"@. c #D3B81D",
"O. c #9C555E",
"gX c #DD4E29",
"4. c #D3555A",
"*. c #675A0A",
"w  c #D1FF76",
"dX c #DB6669",
"yX c #18331B",
"`. c #150015",
"KX c #FDED8A",
/* pixels */
"            . X o O + @ # $             ",
"    % & * = - ; : > , < 1 2   * * 3 4   ",
"    5 * 6 7 8 9 0 q w e r t y u i p a   ",
"    s d f g h j k l z x c v b n m M N   ",
"  B * V C Z A S D F G H J K L P I U Y T ",
"  R E W Q ! ~ ^ / ( ) _ ` ' ] [ { } |  .",
"  R ..X.o.O.+.@.#.$.%.&.*.=.-.;.:.>.,.<.",
"1.2.3.4.5.6.7.8.9.0.q.w.e.r.t.y.u.i.p.a.",
"s.d.f.g.h.j.k.l.z.x.c.v.b.n.m.M.N.B.V.C.",
"Z.A.S.D.F.G.H.J.K.L.P.I.U.Y.T.R.E.W.Q.  ",
"!.~.^./.(.)._.`.'.].[.{.}.|. X.XXXoXOX  ",
"+X@X#X$X%X&X*X=X-X;X:X>X,X<X1X2X3X* 4   ",
"4X5X6X7X8X9X0XqX'.wXeXrXtXyXuXiXpXaX%   ",
"  sXdXfXgXhXjX-XkXlXzXxXcXvXbXnX* mX    ",
"  MX* NX* BXVXCXZXAXSXDXFXGXHX* & %     ",
"            JXKXLXPXIXUXYXTX            "
};
